<?xml version="1.0" standalone="no"?><!DOCTYPE svg PUBLIC "-//W3C//DTD SVG 1.1//EN"
        "http://www.w3.org/Graphics/SVG/1.1/DTD/svg11.dtd">
<svg class="Header-module--desktopLogo--c14c9" viewBox="0 0 100 100" version="1.1" xmlns="http://www.w3.org/2000/svg"
     style="background-color:rgb(236, 89, 144);block-size:32px;bottom:-10px;display:inline-block;fill:rgb(255, 255, 255);font-size:55px;font-weight:700;height:32px;inline-size:32px;inset-block-end:-10px;inset-block-start:10px;inset-inline-end:0px;inset-inline-start:0px;left:0px;line-height:66px;margin-inline-end:5px;margin-right:5px;perspective-origin:30px 30px;position:relative;right:0px;text-align:center;top:0px;transform-origin:30px 30px;width:32px;border-radius:8px">
    <path d="M73.56,13.32H58.14a8.54,8.54,0,0,0-16.27,0H26.44a11,11,0,0,0-11,11V81.63a11,11,0,0,0,11,11H73.56a11,11,0,0,0,11-11V24.32A11,11,0,0,0,73.56,13.32Zm-30.92,2a1,1,0,0,0,1-.79,6.54,6.54,0,0,1,12.78,0,1,1,0,0,0,1,.79h5.38v6.55a3,3,0,0,1-3,3H40.25a3,3,0,0,1-3-3V15.32ZM82.56,81.63a9,9,0,0,1-9,9H26.44a9,9,0,0,1-9-9V24.32a9,9,0,0,1,9-9h8.81v6.55a5,5,0,0,0,5,5h19.5a5,5,0,0,0,5-5V15.32h8.81a9,9,0,0,1,9,9Z"
          style="block-size:auto;d:path(&quot;M 73.56 13.32 H 58.14 A 8.54 8.54 0 0 0 41.87 13.32 H 26.44 A 11 11 0 0 0 15.44 24.32 V 81.63 A 11 11 0 0 0 26.44 92.63 H 73.56 A 11 11 0 0 0 84.56 81.63 V 24.32 A 11 11 0 0 0 73.56 13.32 Z M 42.64 15.32 A 1 1 0 0 0 43.64 14.53 A 6.54 6.54 0 0 1 56.42 14.53 A 1 1 0 0 0 57.42 15.32 H 62.8 V 21.87 A 3 3 0 0 1 59.8 24.87 H 40.25 A 3 3 0 0 1 37.25 21.87 V 15.32 Z M 82.56 81.63 A 9 9 0 0 1 73.56 90.63 H 26.44 A 9 9 0 0 1 17.44 81.63 V 24.32 A 9 9 0 0 1 26.44 15.32 H 35.25 V 21.87 A 5 5 0 0 0 40.25 26.87 H 59.75 A 5 5 0 0 0 64.75 21.87 V 15.32 H 73.56 A 9 9 0 0 1 82.56 24.32 Z&quot;);fill:rgb(255, 255, 255);font-size:55px;font-weight:700;height:auto;inline-size:auto;line-height:66px;overflow-clip-margin:0px;overflow-x:visible;overflow-y:visible;perspective-origin:0px 0px;text-align:center;transform-origin:0px 0px;width:auto;"/>
    <path style="block-size:auto;d:path(&quot;M 71.6 45.92 H 54 A 1 1 0 0 0 54 47.92 H 71.6 A 1 1 0 0 0 71.6 45.92 Z&quot;);fill:rgb(255, 255, 255);font-size:55px;font-weight:700;height:auto;inline-size:auto;line-height:66px;overflow-clip-margin:0px;overflow-x:visible;overflow-y:visible;perspective-origin:0px 0px;text-align:center;transform:matrix(1, 0, 0, 1, -25, 0);transform-origin:0px 0px;width:auto;"
          d="M71.6,45.92H54a1,1,0,0,0,0,2H71.6a1,1,0,0,0,0-2Z"/>
    <path d="M71.6,45.92H54a1,1,0,0,0,0,2H71.6a1,1,0,0,0,0-2Z"
          style="block-size:auto;d:path(&quot;M 71.6 45.92 H 54 A 1 1 0 0 0 54 47.92 H 71.6 A 1 1 0 0 0 71.6 45.92 Z&quot;);fill:rgb(255, 255, 255);font-size:55px;font-weight:700;height:auto;inline-size:auto;line-height:66px;overflow-clip-margin:0px;overflow-x:visible;overflow-y:visible;perspective-origin:0px 0px;text-align:center;transform-origin:0px 0px;width:auto;"/>
    <path style="block-size:auto;d:path(&quot;M 71.1 69.49 H 53.45 A 1 1 0 1 0 53.45 71.49 H 71.1 A 1 1 0 0 0 71.1 69.49 Z&quot;);fill:rgb(255, 255, 255);font-size:55px;font-weight:700;height:auto;inline-size:auto;line-height:66px;overflow-clip-margin:0px;overflow-x:visible;overflow-y:visible;perspective-origin:0px 0px;text-align:center;transform:matrix(1, 0, 0, 1, -25, 0);transform-origin:0px 0px;width:auto;"
          d="M71.1,69.49H53.45a1,1,0,1,0,0,2H71.1a1,1,0,0,0,0-2Z"/>
    <path d="M71.1,69.49H53.45a1,1,0,1,0,0,2H71.1a1,1,0,0,0,0-2Z"
          style="block-size:auto;d:path(&quot;M 71.1 69.49 H 53.45 A 1 1 0 1 0 53.45 71.49 H 71.1 A 1 1 0 0 0 71.1 69.49 Z&quot;);fill:rgb(255, 255, 255);font-size:55px;font-weight:700;height:auto;inline-size:auto;line-height:66px;overflow-clip-margin:0px;overflow-x:visible;overflow-y:visible;perspective-origin:0px 0px;text-align:center;transform-origin:0px 0px;width:auto;"/>
</svg>